<?xml version="1.0" encoding="iso-8859-1"?>
<!-- Generator: Adobe Illustrator 19.0.0, SVG Export Plug-In . SVG Version: 6.00 Build 0)  -->
<svg version="1.1" id="Layer_1" xmlns="http://www.w3.org/2000/svg" xmlns:xlink="http://www.w3.org/1999/xlink" x="0px" y="0px"
	 viewBox="0 0 512 512" style="enable-background:new 0 0 512 512;" xml:space="preserve">
<g>
	<path style="fill:#169B62;" d="M178.815,294.573c0-24.301-8.798-37.298-15.867-47.74c-5.95-8.79-10.25-15.141-10.25-29.421
		c0-14.278,4.299-20.629,10.249-29.418c7.07-10.444,15.868-23.44,15.868-47.74s-8.798-37.298-15.867-47.741
		c-5.95-8.789-10.25-15.14-10.25-29.419s4.299-20.631,10.249-29.42c1.772-2.613,2.809-5.766,2.809-9.162
		c0-9.024-7.316-16.34-16.34-16.34c-5.651,0-10.63,2.868-13.564,7.228c-7.063,10.436-15.835,23.429-15.835,47.694
		c0,24.3,8.798,37.296,15.867,47.739c5.95,8.79,10.25,15.141,10.25,29.421c0,14.278-4.299,20.63-10.25,29.419
		c-7.069,10.444-15.867,23.44-15.867,47.739c0,24.301,8.798,37.298,15.867,47.74c5.95,8.79,10.25,15.141,10.25,29.421
		c0,14.28-4.299,20.631-10.25,29.423c-7.069,10.444-15.867,23.441-15.867,47.742c0,24.301,8.798,37.299,15.867,47.742
		c5.95,8.79,10.25,15.142,10.25,29.425c0,14.279-4.296,20.63-10.244,29.417c-1.775,2.614-2.814,5.768-2.814,9.166
		c0,9.024,7.316,16.34,16.34,16.34c5.651,0,10.631-2.869,13.565-7.229c7.063-10.434,15.834-23.428,15.834-47.694
		c0-24.303-8.798-37.3-15.867-47.743c-5.95-8.79-10.25-15.142-10.25-29.424c0-14.282,4.3-20.633,10.25-29.424
		C170.018,331.872,178.815,318.875,178.815,294.573z"/>
	<path style="fill:#169B62;" d="M365.865,217.412c0-14.278,4.299-20.629,10.249-29.418c7.07-10.444,15.868-23.44,15.868-47.74
		s-8.798-37.298-15.867-47.741c-5.95-8.789-10.25-15.14-10.25-29.419s4.299-20.631,10.249-29.42
		c1.772-2.613,2.809-5.766,2.809-9.162c0-9.024-7.316-16.34-16.34-16.34c-5.651,0-10.63,2.868-13.564,7.228
		c-7.063,10.436-15.835,23.429-15.835,47.694c0,24.3,8.798,37.296,15.867,47.739c5.95,8.79,10.25,15.141,10.25,29.421
		c0,14.278-4.299,20.63-10.25,29.419c-7.069,10.444-15.867,23.44-15.867,47.739c0,24.301,8.798,37.298,15.867,47.74
		c5.95,8.79,10.25,15.141,10.25,29.421c0,14.28-4.299,20.631-10.249,29.421c-1.772,2.613-2.809,5.765-2.809,9.16
		c0,9.024,7.316,16.34,16.34,16.34c5.653,0,10.633-2.87,13.567-7.233c7.063-10.435,15.832-23.428,15.832-47.689
		c0-24.301-8.798-37.298-15.867-47.74C370.164,238.043,365.865,231.692,365.865,217.412z"/>
</g>
<rect x="239.663" y="121.305" transform="matrix(-0.7071 -0.7071 0.7071 -0.7071 328.1402 443.8917)" style="fill:#10744A;" width="32.681" height="65.361"/>
<rect x="239.656" y="223.319" transform="matrix(-0.7071 0.7071 -0.7071 -0.7071 618.0331 256.0023)" style="fill:#FF883E;" width="32.681" height="65.361"/>
<rect x="239.657" y="325.323" transform="matrix(-0.7071 -0.7071 0.7071 -0.7071 183.8675 792.167)" style="fill:#10744A;" width="32.681" height="65.361"/>
<path style="fill:#FFE1AA;" d="M482.698,92.513c-5.95-8.79-10.25-15.141-10.25-29.42s4.299-20.631,10.249-29.42
	c1.772-2.613,2.809-5.766,2.809-9.162c0-9.024-7.316-16.34-16.34-16.34c-5.651,0-10.63,2.868-13.564,7.228
	c-7.063,10.436-15.835,23.429-15.835,47.694c0,24.3,8.798,37.296,15.867,47.739c5.95,8.79,10.25,15.141,10.25,29.421
	c0,14.278-4.299,20.63-10.249,29.418c-1.772,2.613-2.809,5.766-2.809,9.16c0,9.024,7.316,16.34,16.34,16.34
	c5.652,0,10.632-2.87,13.567-7.232c7.063-10.434,15.832-23.427,15.832-47.687C498.565,115.953,489.767,102.956,482.698,92.513z"/>
<rect x="452.821" y="232.461" transform="matrix(-0.7071 -0.7071 0.7071 -0.7071 613.4254 784.3728)" style="fill:#FF883E;" width="32.681" height="65.361"/>
<rect x="452.82" y="334.475" transform="matrix(-0.7071 0.7071 -0.7071 -0.7071 1060.5254 295.0268)" style="fill:#10744A;" width="32.681" height="65.361"/>
<rect x="452.826" y="436.483" transform="matrix(-0.7071 -0.7071 0.7071 -0.7071 469.1681 1132.6632)" style="fill:#FF883E;" width="32.681" height="65.361"/>
<path style="fill:#FFE1AA;" d="M56.365,401.171c-5.95-8.79-10.25-15.141-10.25-29.42s4.299-20.631,10.249-29.42
	c1.772-2.613,2.809-5.766,2.809-9.162c0-9.024-7.316-16.34-16.34-16.34c-5.651,0-10.63,2.868-13.564,7.228
	c-7.063,10.436-15.835,23.429-15.835,47.694c0,24.3,8.798,37.296,15.867,47.739c5.95,8.79,10.25,15.141,10.25,29.421
	c0,14.278-4.299,20.63-10.249,29.418c-1.772,2.613-2.809,5.766-2.809,9.16c0,9.024,7.316,16.34,16.34,16.34
	c5.652,0,10.632-2.87,13.567-7.232c7.063-10.434,15.832-23.427,15.832-47.687C72.232,424.609,63.435,411.613,56.365,401.171z"/>
<rect x="26.493" y="10.152" transform="matrix(-0.7071 -0.7071 0.7071 -0.7071 42.8342 103.4085)" style="fill:#FF883E;" width="32.681" height="65.361"/>
<rect x="26.493" y="112.16" transform="matrix(-0.7071 0.7071 -0.7071 -0.7071 175.5377 216.9704)" style="fill:#10744A;" width="32.681" height="65.361"/>
<rect x="26.498" y="214.167" transform="matrix(-0.7071 -0.7071 0.7071 -0.7071 -101.4176 451.6859)" style="fill:#FF883E;" width="32.681" height="65.361"/>
<path d="M362.583,357.666c-13.516,0-24.511-10.996-24.511-24.511c0-4.925,1.459-9.679,4.218-13.747
	c5.698-8.419,8.84-13.058,8.84-24.835c0-11.775-3.142-16.416-8.846-24.842c-7.289-10.767-17.271-25.513-17.271-52.32
	c0-26.803,9.982-41.55,17.27-52.317c5.705-8.426,8.847-13.067,8.847-24.842c0-11.774-3.142-16.415-8.845-24.841
	c-7.29-10.768-17.272-25.514-17.272-52.32c0-26.803,9.963-41.524,17.239-52.274C346.809,4.051,354.413,0,362.583,0
	c13.516,0,24.511,10.996,24.511,24.511c0,4.926-1.459,9.682-4.219,13.749c-5.697,8.417-8.839,13.057-8.839,24.833
	c0,11.775,3.142,16.415,8.845,24.839c7.29,10.771,17.272,25.517,17.272,52.322s-9.983,41.553-17.271,52.319
	c-5.704,8.426-8.846,13.066-8.846,24.84c0,11.775,3.142,16.416,8.846,24.842c7.289,10.767,17.271,25.513,17.271,52.32
	c0,26.805-9.962,41.523-17.236,52.269C378.364,353.611,370.758,357.666,362.583,357.666z M362.583,16.34
	c-2.723,0-5.261,1.353-6.786,3.62c-6.776,10.01-14.443,21.338-14.443,43.132c0,21.795,7.683,33.146,14.462,43.159
	c6.254,9.239,11.654,17.217,11.654,34.001c0,16.785-5.401,24.762-11.654,34c-6.779,10.014-14.462,21.366-14.462,43.158
	c0,21.796,7.683,33.147,14.462,43.16c6.254,9.237,11.654,17.216,11.654,34.001c0,16.787-5.401,24.763-11.653,34.001
	c-0.921,1.357-1.405,2.939-1.405,4.581c0,4.506,3.665,8.17,8.17,8.17c2.724,0,5.263-1.354,6.787-3.622
	c6.776-10.01,14.441-21.334,14.441-43.13c0-21.796-7.683-33.147-14.462-43.16c-6.253-9.237-11.654-17.216-11.654-34.001
	c0-16.784,5.4-24.76,11.653-33.998c6.78-10.016,14.463-21.366,14.463-43.161s-7.683-33.146-14.462-43.16
	c-6.254-9.237-11.654-17.215-11.654-34c0-16.786,5.401-24.762,11.654-34c0.921-1.357,1.405-2.939,1.405-4.582
	C370.753,20.005,367.089,16.34,362.583,16.34z"/>
<path d="M244.446,196.827c-2.167,0-4.245-0.861-5.777-2.392l-23.109-23.11c-3.191-3.192-3.191-8.364,0-11.555l46.217-46.217
	c3.191-3.19,8.364-3.19,11.554,0l23.109,23.109c1.533,1.533,2.393,3.61,2.393,5.778c0,2.168-0.861,4.244-2.393,5.778l-46.217,46.218
	C248.691,195.966,246.613,196.827,244.446,196.827z M232.891,165.547l11.555,11.555l34.663-34.663l-11.555-11.554L232.891,165.547z"
	/>
<path d="M267.554,298.833c-2.09,0-4.182-0.797-5.777-2.392l-46.217-46.217c-1.533-1.533-2.393-3.61-2.393-5.778
	c0-2.168,0.861-4.244,2.393-5.778l23.109-23.109c3.191-3.191,8.364-3.189,11.554,0l46.217,46.217
	c1.533,1.533,2.393,3.61,2.393,5.778c0,2.168-0.861,4.244-2.393,5.778l-23.109,23.109
	C271.736,298.035,269.644,298.833,267.554,298.833z M232.891,244.446l34.662,34.662l11.554-11.554l-34.662-34.662L232.891,244.446z"
	/>
<path d="M244.446,400.84c-2.09,0-4.182-0.797-5.777-2.392l-23.109-23.109c-1.533-1.533-2.393-3.61-2.393-5.778
	s0.861-4.244,2.393-5.778l46.217-46.218c1.532-1.532,3.61-2.392,5.777-2.392c2.167,0,4.245,0.861,5.777,2.392l23.109,23.11
	c3.191,3.192,3.191,8.364,0,11.555l-46.217,46.217C248.627,400.043,246.537,400.84,244.446,400.84z M232.891,369.562l11.555,11.554
	l34.663-34.662l-11.555-11.555L232.891,369.562z"/>
<path d="M469.167,203.342c-13.516,0-24.511-10.996-24.511-24.511c0-4.925,1.459-9.68,4.218-13.747
	c5.698-8.417,8.84-13.057,8.84-24.832c0-11.774-3.142-16.415-8.845-24.84c-7.29-10.769-17.272-25.515-17.272-52.321
	c0-26.803,9.963-41.525,17.239-52.274C453.392,4.051,460.996,0,469.167,0c13.516,0,24.511,10.996,24.511,24.511
	c0,4.926-1.459,9.681-4.22,13.749c-5.697,8.417-8.839,13.057-8.839,24.833c0,11.774,3.142,16.415,8.846,24.841
	c7.289,10.767,17.271,25.513,17.271,52.32c0,26.803-9.962,41.521-17.236,52.266C484.946,199.289,477.34,203.342,469.167,203.342z
	 M469.167,16.34c-2.723,0-5.262,1.353-6.787,3.62c-6.776,10.01-14.442,21.338-14.442,43.132c0,21.795,7.683,33.146,14.462,43.159
	c6.254,9.239,11.654,17.217,11.654,34.001c0,16.786-5.401,24.762-11.654,33.999c-0.921,1.356-1.404,2.938-1.404,4.58
	c0,4.506,3.665,8.17,8.17,8.17c2.724,0,5.262-1.354,6.787-3.622c6.776-10.009,14.441-21.334,14.441-43.127
	c0-21.796-7.683-33.147-14.462-43.161c-6.253-9.237-11.654-17.216-11.654-34c0-16.786,5.4-24.763,11.653-34
	c0.922-1.358,1.406-2.939,1.406-4.582C477.338,20.005,473.672,16.34,469.167,16.34z"/>
<path d="M457.613,307.985c-2.091,0-4.182-0.797-5.777-2.392l-23.109-23.109c-1.533-1.533-2.393-3.61-2.393-5.778
	c0-2.168,0.861-4.244,2.393-5.778l46.217-46.218c3.191-3.19,8.364-3.19,11.554,0l23.109,23.109c1.533,1.533,2.393,3.61,2.393,5.778
	s-0.861,4.244-2.393,5.778l-46.217,46.218C461.795,307.187,459.703,307.985,457.613,307.985z M446.058,276.707l11.555,11.554
	l34.663-34.663l-11.555-11.554L446.058,276.707z"/>
<path d="M480.721,409.992c-2.09,0-4.182-0.797-5.777-2.392l-46.217-46.218c-1.533-1.533-2.393-3.61-2.393-5.778
	s0.861-4.244,2.393-5.778l23.109-23.109c3.191-3.19,8.364-3.19,11.554,0l46.217,46.218c1.533,1.533,2.393,3.61,2.393,5.778
	s-0.861,4.244-2.393,5.778L486.498,407.6C484.902,409.195,482.812,409.992,480.721,409.992z M446.058,355.605l34.664,34.663
	l11.555-11.554l-34.663-34.663L446.058,355.605z"/>
<path d="M457.613,512c-2.091,0-4.182-0.797-5.777-2.392l-23.109-23.109c-1.533-1.533-2.393-3.61-2.393-5.778
	s0.861-4.244,2.393-5.778l46.217-46.218c3.191-3.19,8.364-3.19,11.554,0l23.109,23.109c1.533,1.533,2.393,3.61,2.393,5.778
	s-0.861,4.244-2.393,5.778l-46.217,46.218C461.795,511.203,459.703,512,457.613,512z M446.058,480.721l11.555,11.554l34.663-34.663
	l-11.555-11.554L446.058,480.721z"/>
<path d="M42.834,512c-13.516,0-24.511-10.996-24.511-24.511c0-4.926,1.459-9.681,4.219-13.748
	c5.697-8.416,8.839-13.055,8.839-24.831c0-11.774-3.142-16.415-8.845-24.841c-7.29-10.768-17.272-25.514-17.272-52.32
	c0-26.803,9.963-41.524,17.239-52.274c4.556-6.767,12.161-10.818,20.331-10.818c13.516,0,24.511,10.996,24.511,24.511
	c0,4.925-1.459,9.679-4.219,13.748c-5.698,8.419-8.84,13.058-8.84,24.834c0,11.774,3.142,16.414,8.846,24.841
	c7.289,10.767,17.271,25.513,17.271,52.32c0,26.804-9.962,41.521-17.236,52.266C58.613,507.946,51.007,512,42.834,512z
	 M42.834,324.998c-2.723,0-5.262,1.353-6.787,3.62c-6.776,10.01-14.443,21.339-14.443,43.132c0,21.795,7.683,33.146,14.462,43.159
	c6.254,9.239,11.654,17.217,11.654,34.001c0,16.786-5.4,24.762-11.653,33.999c-0.921,1.356-1.404,2.937-1.404,4.58
	c0,4.506,3.665,8.17,8.17,8.17c2.724,0,5.262-1.354,6.787-3.622c6.776-10.009,14.441-21.333,14.441-43.127
	c0-21.796-7.683-33.147-14.462-43.161c-6.253-9.237-11.654-17.216-11.654-34c0-16.786,5.401-24.762,11.653-34
	c0.922-1.358,1.406-2.94,1.406-4.582C51.004,328.663,47.339,324.998,42.834,324.998z"/>
<path d="M31.279,85.667c-2.09,0-4.182-0.797-5.777-2.392L2.393,60.165C0.861,58.633,0,56.555,0,54.389
	c0-2.167,0.861-4.244,2.393-5.778L48.611,2.392c3.191-3.19,8.364-3.19,11.554,0l23.109,23.109c1.533,1.533,2.393,3.61,2.393,5.778
	s-0.861,4.244-2.393,5.778L37.057,83.274C35.461,84.869,33.37,85.667,31.279,85.667z M19.724,54.389l11.555,11.554l34.663-34.663
	L54.387,19.724L19.724,54.389z"/>
<path d="M54.387,187.674c-2.09,0-4.182-0.797-5.777-2.392L2.393,139.064C0.861,137.531,0,135.453,0,133.287s0.861-4.244,2.393-5.778
	L25.502,104.4c3.191-3.19,8.364-3.19,11.554,0l46.217,46.218c1.533,1.533,2.393,3.61,2.393,5.778c0,2.168-0.861,4.244-2.393,5.778
	l-23.109,23.109C58.57,186.877,56.478,187.674,54.387,187.674z M19.724,133.287l34.663,34.663l11.555-11.554l-34.663-34.663
	L19.724,133.287z"/>
<path d="M31.279,289.682c-2.09,0-4.182-0.797-5.777-2.392L2.393,264.181C0.861,262.648,0,260.57,0,258.403
	c0-2.167,0.861-4.244,2.393-5.778l46.217-46.218c3.191-3.19,8.364-3.19,11.554,0l23.109,23.109c1.533,1.533,2.393,3.61,2.393,5.778
	s-0.861,4.244-2.393,5.778L37.056,287.29C35.461,288.885,33.37,289.682,31.279,289.682z M19.724,258.403l11.555,11.554
	l34.663-34.663L54.387,223.74L19.724,258.403z"/>
<path d="M149.417,512c-13.516,0-24.511-10.996-24.511-24.511c0-4.929,1.461-9.687,4.225-13.756
	c5.694-8.411,8.834-13.049,8.834-24.828s-3.142-16.419-8.846-24.845c-7.289-10.771-17.271-25.517-17.271-52.322
	c0-26.806,9.982-41.554,17.271-52.321c5.704-8.426,8.846-13.068,8.846-24.844c0-11.775-3.142-16.416-8.846-24.842
	c-7.289-10.767-17.271-25.513-17.271-52.32c0-26.803,9.982-41.55,17.27-52.317c2.889-4.267,5.169-7.635,6.679-11.485
	c1.648-4.199,6.388-6.269,10.59-4.622c4.201,1.648,6.27,6.389,4.622,10.591c-2.173,5.539-5.177,9.976-8.358,14.675
	c-6.779,10.016-14.462,21.367-14.462,43.159c0,21.797,7.683,33.147,14.462,43.16c6.253,9.237,11.654,17.216,11.654,34.001
	c0,16.786-5.401,24.764-11.654,34.002c-6.779,10.016-14.462,21.367-14.462,43.163c0,21.796,7.682,33.146,14.46,43.16
	c6.255,9.24,11.656,17.218,11.656,34.007c0,16.788-5.399,24.762-11.649,33.998c-0.924,1.361-1.409,2.943-1.409,4.586
	c0,4.506,3.665,8.17,8.17,8.17c2.723,0,5.261-1.353,6.787-3.621c6.776-10.009,14.442-21.335,14.442-43.133
	c0-21.797-7.683-33.149-14.462-43.164c-6.253-9.238-11.654-17.217-11.654-34.003c0-16.787,5.401-24.764,11.654-34.003
	c6.78-10.017,14.462-21.367,14.462-43.162c0-21.796-7.683-33.147-14.462-43.16c-6.253-9.237-11.654-17.216-11.654-34.001
	c0-16.784,5.4-24.76,11.653-33.998c6.78-10.016,14.463-21.366,14.463-43.161c0-21.795-7.683-33.146-14.462-43.16
	c-6.254-9.237-11.654-17.215-11.654-34c0-16.786,5.401-24.762,11.653-34c0.922-1.357,1.405-2.939,1.405-4.582
	c0-4.506-3.665-8.17-8.17-8.17c-2.723,0-5.261,1.353-6.786,3.62c-6.776,10.01-14.443,21.34-14.443,43.132
	c0,21.795,7.683,33.146,14.462,43.159c3.18,4.698,6.184,9.135,8.358,14.677c1.648,4.201-0.422,8.943-4.622,10.591
	c-4.201,1.646-8.943-0.423-10.59-4.622c-1.511-3.852-3.791-7.22-6.678-11.485c-7.289-10.767-17.271-25.513-17.271-52.319
	c0-26.803,9.963-41.524,17.239-52.274C133.643,4.051,141.247,0,149.417,0c13.516,0,24.511,10.996,24.511,24.511
	c0,4.926-1.459,9.682-4.219,13.749c-5.697,8.417-8.839,13.057-8.839,24.833c0,11.775,3.142,16.415,8.845,24.839
	c7.29,10.771,17.272,25.517,17.272,52.322s-9.983,41.553-17.271,52.319c-5.704,8.426-8.846,13.066-8.846,24.84
	c0,11.775,3.142,16.416,8.846,24.842c7.289,10.767,17.271,25.513,17.271,52.32c0,26.804-9.982,41.552-17.27,52.319
	c-5.705,8.427-8.848,13.069-8.848,24.846c0,11.776,3.142,16.417,8.846,24.844c7.289,10.768,17.271,25.516,17.271,52.323
	c0,26.808-9.963,41.528-17.238,52.274C165.193,507.948,157.588,512,149.417,512z"/>
<g>
</g>
<g>
</g>
<g>
</g>
<g>
</g>
<g>
</g>
<g>
</g>
<g>
</g>
<g>
</g>
<g>
</g>
<g>
</g>
<g>
</g>
<g>
</g>
<g>
</g>
<g>
</g>
<g>
</g>
</svg>
