<?xml version="1.0" standalone="yes"?>
<svg xmlns="http://www.w3.org/2000/svg" width="354" height="142">
<path style="fill:#fefefe; stroke:none;" d="M0 0L0 142L354 142L354 0L0 0z"/>
<path style="fill:#dbb462; stroke:none;" d="M57 20L58 21L57 20z"/>
<path style="fill:#dd6057; stroke:none;" d="M58.0586 20.7577C50.3727 23.7109 55.0564 35.8009 62.956 33.0633C71.597 30.0687 66.142 17.6519 58.0586 20.7577z"/>
<path style="fill:#dbb462; stroke:none;" d="M63.6667 20.3333L64.3333 20.6667L63.6667 20.3333M55 21L56 22L55 21M65 21L66 22L65 21M66 22L67 23L66 22M67 24L68 25L67 24M53 25L53 29L54 29L53 25M67 29L68 30L67 29M54 30L55 31L54 30M66 31L67 32L66 31M56 32L57 33L56 32M65 32L66 33L65 32M58 33L59 34L58 33M62.6667 33.3333L63.3333 33.6667L62.6667 33.3333M58 35L58 36L64 36L58 35M55 36L56 37L55 36z"/>
<path style="fill:#dd6057; stroke:none;" d="M56.2284 36.7423C48.9253 40.1532 52.9542 61.9812 62.8951 58.2384C72.3838 54.6659 70.2277 30.2039 56.2284 36.7423z"/>
<path style="fill:#dbb462; stroke:none;" d="M66 36L67 37L66 36z"/>
<path style="fill:#5faa93; stroke:none;" d="M28.2323 38.0432C22.9332 41.1338 27.2573 49.699 32.8526 46.777C38.8174 43.662 34.1374 34.5991 28.2323 38.0432z"/>
<path style="fill:#dbb462; stroke:none;" d="M67 37L68 38L67 37M89.108 37.8009C83.1297 39.8054 85.9183 48.7024 91.9452 47.0687C98.2375 45.363 95.174 35.7671 89.108 37.8009M53 38L54 39L53 38M68 39L68 51L69 51L68 39z"/>
<path style="fill:#5faa93; stroke:none;" d="M38.0586 45.0826C28.5568 49.5067 40.4786 63.4391 47.7569 58.9684C54.6475 54.7358 44.3143 42.1699 38.0586 45.0826z"/>
<path style="fill:#dbb462; stroke:none;" d="M52 44L52 47L53 47L52 44M80.0008 44.8904C72.955 46.4977 67.2676 61.9324 78.0039 59.5509C86.4197 57.6842 90.6961 42.4506 80.0008 44.8904M53.3333 51.6667L53.6667 52.3333L53.3333 51.6667M67 53L68 54L67 53M66 55L67 56L66 55M55 56L56 57L55 56M56 57L57 58L56 57M65 57L66 58L65 57M57 58L58 59L57 58M63 58L64 59L63 58M143 58L144 59L143 58z"/>
<path style="fill:#5faa93; stroke:none;" d="M144 58L145 59L144 58z"/>
<path style="fill:#dbb462; stroke:none;" d="M145 58L147 60L145 58M160 58L161 59L160 58z"/>
<path style="fill:#5faa93; stroke:none;" d="M161 58L162 59L161 58z"/>
<path style="fill:#dbb462; stroke:none;" d="M179 58L179 59L184 59L179 58M201 58L201 59L211 59L201 58M234 58L235 59L234 58z"/>
<path style="fill:#5faa93; stroke:none;" d="M235 58L235 59L241 59L235 58z"/>
<path style="fill:#dbb462; stroke:none;" d="M241 58L242 59L241 58M256 60L259 59L256 60z"/>
<path style="fill:#5faa93; stroke:none;" d="M275 58L276 59L275 58z"/>
<path style="fill:#dbb462; stroke:none;" d="M293.667 58.3333L294.333 58.6667L293.667 58.3333z"/>
<path style="fill:#5faa93; stroke:none;" d="M295 58L296 59L295 58z"/>
<path style="fill:#dbb462; stroke:none;" d="M296.667 58.3333L297.333 58.6667L296.667 58.3333z"/>
<path style="fill:#5faa93; stroke:none;" d="M142 59L143 60L142 59z"/>
<path style="fill:#2e2d36; stroke:none;" d="M163 59C155.406 61.5205 161.527 71.4658 157.397 76.7708C147.868 89.0101 146 63.4394 146 59C130.094 64.279 153.397 97.8562 161.991 77.956C162.806 76.0681 162.924 74.0252 162.985 72C163.113 67.6736 163 63.3284 163 59z"/>
<path style="fill:#5faa93; stroke:none;" d="M159 59L160 60L159 59z"/>
<path style="fill:#dbb462; stroke:none;" d="M163 59L164 60L163 59M176 59L177 60L176 59z"/>
<path style="fill:#2e2d36; stroke:none;" d="M171 83L175 83C175 78.2721 173.732 71.326 176.028 67.0448C178.372 62.674 184.066 61.6021 186.821 66.2145C189.75 71.1175 187.388 78.5475 189 84L191 84C192.641 78.4466 193.539 68.178 190.142 63.1088C186.421 57.556 176.579 57.5559 172.858 63.1088C169.4 68.2702 171 77.0796 171 83z"/>
<path style="fill:#5faa93; stroke:none;" d="M186 59L187 60L186 59z"/>
<path style="fill:#dbb462; stroke:none;" d="M199 59L200 60L199 59z"/>
<path style="fill:#2e2d36; stroke:none;" d="M200 59L200 83C204.897 83 211.332 84.0689 215.891 81.9907C221.835 79.2818 219.673 73.3572 215 71C224.391 59.0998 208.099 59 200 59z"/>
<path style="fill:#5faa93; stroke:none;" d="M214 59L215 60L214 59z"/>
<path style="fill:#dbb462; stroke:none;" d="M215 59L216 60L215 59z"/>
<path style="fill:#5faa93; stroke:none;" d="M232 59L233 60L232 59z"/>
<path style="fill:#2e2d36; stroke:none;" d="M233.001 59.7423C217.423 65.7309 228.069 88.429 242.985 82.3827C258.592 76.0566 248.2 53.8989 233.001 59.7423z"/>
<path style="fill:#5faa93; stroke:none;" d="M243 59L244 60L243 59z"/>
<path style="fill:#2e2d36; stroke:none;" d="M277 59L274 59C274 64.3599 275.635 79.3642 267 79.3642C258.183 79.3642 260 64.4402 260 59C243.63 64.4332 268.106 97.9595 276.258 77.956C277.019 76.0884 276.969 73.9781 276.996 72C277.057 67.6684 277 63.3321 277 59z"/>
<path style="fill:#dbb462; stroke:none;" d="M260 59L261 60L260 59M273 59L274 60L273 59M277 59L278 60L277 59M289 59L290 60L289 59z"/>
<path style="fill:#5faa93; stroke:none;" d="M290 59L291 60L290 59z"/>
<path style="fill:#2e2d36; stroke:none;" d="M285 83L288 83C288 77.7429 286.944 70.7596 289.938 66.1096C293.248 60.9692 299.215 62.8377 301.258 68.0154C302.983 72.3887 302 78.3712 302 83C317.731 77.7788 294.948 44.2299 286.009 64.1049C285.175 65.96 285.075 68.0005 285.015 70C284.887 74.3264 285 78.6717 285 83z"/>
<path style="fill:#dbb462; stroke:none;" d="M300 59L301 60L300 59z"/>
<path style="fill:#2e2d36; stroke:none;" d="M313 59L313 83C317.661 83 323.719 83.9967 327.995 81.821C335.863 77.8182 337.104 67.0028 329.895 61.7029C325.12 58.1923 318.577 59 313 59z"/>
<path style="fill:#5faa93; stroke:none;" d="M325 59L326 60L325 59z"/>
<path style="fill:#dbb462; stroke:none;" d="M326 59L327 60L326 59M337 59L337 61L339 61L337 59z"/>
<path style="fill:#5faa93; stroke:none;" d="M338 59L339 60L338 59M146 60L146 74L147 74L146 60M163 60L163 74L164 74L163 60z"/>
<path style="fill:#dbb462; stroke:none;" d="M174 60L175 61L174 60M188 60L189 61L188 60z"/>
<path style="fill:#5faa93; stroke:none;" d="M199 60L199 82L200 82L199 60M216 60L217 61L216 60z"/>
<path style="fill:#dbb462; stroke:none;" d="M230 60L231 61L230 60z"/>
<path style="fill:#5faa93; stroke:none;" d="M245 60L246 61L245 60M260 60L260 74L261 74L260 60M273 60L273 73L274 73L273 60M277 60L277 75L278 75L277 60M288 60L289 61L288 60z"/>
<path style="fill:#dbb462; stroke:none;" d="M302 60L303 61L302 60z"/>
<path style="fill:#5faa93; stroke:none;" d="M312 60L312 82L313 82L312 60M328 60L329 61L328 60z"/>
<path style="fill:#dbb462; stroke:none;" d="M173 61L174 62L173 61z"/>
<path style="fill:#5faa93; stroke:none;" d="M189 61L190 62L189 61M217 61L218 62L217 61M229 61L230 62L229 61M246 61L247 62L246 61z"/>
<path style="fill:#dbb462; stroke:none;" d="M303 61L304 62L303 61M330 61L331 62L330 61M172 62L173 63L172 62z"/>
<path style="fill:#5faa93; stroke:none;" d="M180 62L180 63L183 63L180 62z"/>
<path style="fill:#dbb462; stroke:none;" d="M190 62L191 63L190 62z"/>
<path style="fill:#5faa93; stroke:none;" d="M203 69L204 69L204 63L212 63C206.288 60.6089 203.191 63.1921 203 69z"/>
<path style="fill:#dbb462; stroke:none;" d="M218 62L219 63L218 62z"/>
<path style="fill:#5faa93; stroke:none;" d="M228 62L229 63L228 62M235 62L236 63L235 62z"/>
<path style="fill:#dbb462; stroke:none;" d="M236 62L236 63L240 63L236 62z"/>
<path style="fill:#5faa93; stroke:none;" d="M240 62L241 63L240 62M286 62L287 63L286 62M293 62L293 63L297 63L293 62z"/>
<path style="fill:#dbb462; stroke:none;" d="M331 62L332 63L331 62M15.6667 63.3333L16.3333 63.6667L15.6667 63.3333M28 63L29 64L28 63z"/>
<path style="fill:#5faa93; stroke:none;" d="M29 63L29 64L40 64L29 63z"/>
<path style="fill:#dbb462; stroke:none;" d="M40.6667 63.3333L41.3333 63.6667L40.6667 63.3333M81 63L81 64L84 64L81 63z"/>
<path style="fill:#5faa93; stroke:none;" d="M84 63.4321C66.7658 65.7293 74.823 80.6328 88.9992 78.6806C101.518 76.9565 95.7804 61.8618 84 63.4321z"/>
<path style="fill:#dbb462; stroke:none;" d="M90 63L90 64L93 64L90 63M178 63L179 64L178 63M184 63L185 64L184 63z"/>
<path style="fill:#fefefe; stroke:none;" d="M204 63L204 69C214.56 68.9044 214.738 63.0083 204 63z"/>
<path style="fill:#5faa93; stroke:none;" d="M213 63L214 64L213 63M218 63L219 64L218 63M227 63L228 64L227 63M233 63L234 64L233 63z"/>
<path style="fill:#fefefe; stroke:none;" d="M234.109 64.0278C225.322 68.9538 232.917 82.8946 241.941 77.9722C250.78 73.1516 243.036 59.0232 234.109 64.0278z"/>
<path style="fill:#5faa93; stroke:none;" d="M242 63L243 64L242 63M248 63L249 64L248 63z"/>
<path style="fill:#dbb462; stroke:none;" d="M285 63L286 64L285 63z"/>
<path style="fill:#5faa93; stroke:none;" d="M291 63L292 64L291 63z"/>
<path style="fill:#dbb462; stroke:none;" d="M298 63L299 64L298 63z"/>
<path style="fill:#5faa93; stroke:none;" d="M304 63L305 64L304 63z"/>
<path style="fill:#fefefe; stroke:none;" d="M317 63L317 79C333.115 78.9538 333.003 63.1343 317 63z"/>
<path style="fill:#dbb462; stroke:none;" d="M324 63L325 64L324 63z"/>
<path style="fill:#5faa93; stroke:none;" d="M325 63L326 64L325 63z"/>
<path style="fill:#dbb462; stroke:none;" d="M332 63L333 64L332 63M12 64L13 65L12 64z"/>
<path style="fill:#2e2d36; stroke:none;" d="M13.0586 65.0432C5.35778 68.9981 11.068 81.1076 18.8912 76.8171C26.2999 72.754 20.427 61.2591 13.0586 65.0432z"/>
<path style="fill:#5faa93; stroke:none;" d="M18 64L19 65L18 64z"/>
<path style="fill:#dbb462; stroke:none;" d="M19 64L20 65L19 64M26 64L25 66L26 64z"/>
<path style="fill:#2e2d36; stroke:none;" d="M27.4336 65.0278C24.1163 67.311 24.1163 74.689 27.4336 76.9722C31.2632 79.608 42.1553 78.6281 45.7716 75.9907C57.214 67.6461 34.1688 60.3922 27.4336 65.0278z"/>
<path style="fill:#5faa93; stroke:none;" d="M43 64L44 65L43 64z"/>
<path style="fill:#dbb462; stroke:none;" d="M44 64L45 65L44 64M94 64L95 65L94 64z"/>
<path style="fill:#5faa93; stroke:none;" d="M103.109 64.7577C95.561 67.7385 99.9306 80.2496 107.956 77.2423C116.474 74.0505 111.22 61.5546 103.109 64.7577z"/>
<path style="fill:#dbb462; stroke:none;" d="M108 64L109 65L108 64M171 64L172 65L171 64z"/>
<path style="fill:#5faa93; stroke:none;" d="M186 64L187 65L186 64M191.333 64.6667L191.667 65.3333L191.333 64.6667z"/>
<path style="fill:#dbb462; stroke:none;" d="M226 64L227 65L226 64M232 64L233 65L232 64M243 64L244 65L243 64M249 64L250 65L249 64z"/>
<path style="fill:#5faa93; stroke:none;" d="M285 64L286 65L285 64z"/>
<path style="fill:#dbb462; stroke:none;" d="M290 64L291 65L290 64M299 64L300 65L299 64z"/>
<path style="fill:#5faa93; stroke:none;" d="M11 65L12 66L11 65M20 65L21 66L20 65M45 65L46 66L45 65z"/>
<path style="fill:#dbb462; stroke:none;" d="M95 65L96 66L95 65z"/>
<path style="fill:#5faa93; stroke:none;" d="M171 65L172 66L171 65z"/>
<path style="fill:#dbb462; stroke:none;" d="M186 65L187 66L186 65z"/>
<path style="fill:#5faa93; stroke:none;" d="M214 65L215 66L214 65z"/>
<path style="fill:#dbb462; stroke:none;" d="M231 65L232 66L231 65M244 65L245 66L244 65M284.333 65.6667L284.667 66.3333L284.333 65.6667z"/>
<path style="fill:#5faa93; stroke:none;" d="M289 65L290 66L289 65z"/>
<path style="fill:#dbb462; stroke:none;" d="M300 65L301 66L300 65M305 65L306 66L305 65z"/>
<path style="fill:#5faa93; stroke:none;" d="M328 65L329 66L328 65M333 65L334 66L333 65M10 66L11 67L10 66M21 66L22 67L21 66M25 66L26 67L25 66z"/>
<path style="fill:#dbb462; stroke:none;" d="M47 66L48 67L47 66M74 66L75 67L74 66z"/>
<path style="fill:#5faa93; stroke:none;" d="M175 66L176 67L175 66M187 66L188 67L187 66M218 66L219 67L218 66z"/>
<path style="fill:#dbb462; stroke:none;" d="M225 66L226 67L225 66z"/>
<path style="fill:#5faa93; stroke:none;" d="M230 66L231 67L230 66M245 66L246 67L245 66z"/>
<path style="fill:#dbb462; stroke:none;" d="M250 66L251 67L250 66M289 66L290 67L289 66z"/>
<path style="fill:#5faa93; stroke:none;" d="M305 66L306 67L305 66M9 67L10 68L9 67z"/>
<path style="fill:#dbb462; stroke:none;" d="M22 67L23 68L22 67M96 67L96 75L97 75L96 67M99 67L100 68L99 67M175.333 67.6667L175.667 68.3333L175.333 67.6667M187 67L187 82L188 82L187 67M192 67L192 83L193 83L192 67M213 67L214 68L213 67M218 67L219 68L218 67z"/>
<path style="fill:#5faa93; stroke:none;" d="M225 67L226 68L225 67z"/>
<path style="fill:#dbb462; stroke:none;" d="M230 67L231 68L230 67M245 67L246 68L245 67z"/>
<path style="fill:#5faa93; stroke:none;" d="M284 67L284 82L285 82L284 67M301 67L301 82L302 82L301 67z"/>
<path style="fill:#dbb462; stroke:none;" d="M329 67L330 68L329 67z"/>
<path style="fill:#5faa93; stroke:none;" d="M334 67L335 68L334 67M22 68L23 69L22 68M48 68L49 69L48 68z"/>
<path style="fill:#dbb462; stroke:none;" d="M112 68L113 69L112 68M211.667 68.3333L212.333 68.6667L211.667 68.3333z"/>
<path style="fill:#5faa93; stroke:none;" d="M217 68L218 69L217 68z"/>
<path style="fill:#dbb462; stroke:none;" d="M8 69L8 73L9 73L8 69z"/>
<path style="fill:#5faa93; stroke:none;" d="M216 69L217 70L216 69M229 69L229 73L230 73L229 69M246 69L247 70L246 69M288 69L288 83L289 83L288 69z"/>
<path style="fill:#dbb462; stroke:none;" d="M98.3333 70.6667L98.6667 71.3333L98.3333 70.6667z"/>
<path style="fill:#5faa93; stroke:none;" d="M215 70L216 71L215 70z"/>
<path style="fill:#dbb462; stroke:none;" d="M246.333 70.6667L246.667 71.3333L246.333 70.6667M251.333 70.6667L251.667 71.3333L251.333 70.6667z"/>
<path style="fill:#5faa93; stroke:none;" d="M330 70L330 73L331 73L330 70z"/>
<path style="fill:#dbb462; stroke:none;" d="M217 71L218 72L217 71z"/>
<path style="fill:#5faa93; stroke:none;" d="M203 79L204 79L204 73L212 73C206.288 70.6089 203.191 73.1921 203 79M218 72L219 73L218 72M246 72L247 73L246 72M22 73L23 74L22 73M48 73L49 74L48 73z"/>
<path style="fill:#dbb462; stroke:none;" d="M112 73L113 74L112 73z"/>
<path style="fill:#fefefe; stroke:none;" d="M204 73L204 79C216.096 78.9987 216.071 73.008 204 73z"/>
<path style="fill:#dbb462; stroke:none;" d="M213 73L214 74L213 73z"/>
<path style="fill:#5faa93; stroke:none;" d="M214 73L215 74L214 73z"/>
<path style="fill:#dbb462; stroke:none;" d="M219 73L220 74L219 73z"/>
<path style="fill:#5faa93; stroke:none;" d="M9 74L10 75L9 74z"/>
<path style="fill:#dbb462; stroke:none;" d="M22 74L23 75L22 74M99 74L100 75L99 74M163.333 74.6667L163.667 75.3333L163.333 74.6667z"/>
<path style="fill:#5faa93; stroke:none;" d="M215 74L216 75L215 74M225 74L226 75L225 74z"/>
<path style="fill:#dbb462; stroke:none;" d="M230 74L231 75L230 74z"/>
<path style="fill:#5faa93; stroke:none;" d="M334 74L335 75L334 74M10 75L11 76L10 75M21 75L22 76L21 75M25 75L26 76L25 75z"/>
<path style="fill:#dbb462; stroke:none;" d="M47 75L48 76L47 75M74 75L75 76L74 75z"/>
<path style="fill:#5faa93; stroke:none;" d="M142 75L143 76L142 75z"/>
<path style="fill:#dbb462; stroke:none;" d="M158 75L159 76L158 75M215.333 75.6667L215.667 76.3333L215.333 75.6667M225 75L226 76L225 75z"/>
<path style="fill:#5faa93; stroke:none;" d="M245 75L246 76L245 75z"/>
<path style="fill:#dbb462; stroke:none;" d="M250 75L251 76L250 75z"/>
<path style="fill:#5faa93; stroke:none;" d="M256 75L257 76L256 75z"/>
<path style="fill:#dbb462; stroke:none;" d="M272 75L273 76L272 75M277.333 75.6667L277.667 76.3333L277.333 75.6667z"/>
<path style="fill:#5faa93; stroke:none;" d="M329 75L330 76L329 75z"/>
<path style="fill:#dbb462; stroke:none;" d="M334 75L335 76L334 75z"/>
<path style="fill:#5faa93; stroke:none;" d="M20 76L21 77L20 76z"/>
<path style="fill:#dbb462; stroke:none;" d="M25 76L26 77L25 76z"/>
<path style="fill:#5faa93; stroke:none;" d="M45 76L46 77L45 76z"/>
<path style="fill:#dbb462; stroke:none;" d="M95 76L96 77L95 76M142.333 76.6667L142.667 77.3333L142.333 76.6667M147 76L148 77L147 76z"/>
<path style="fill:#5faa93; stroke:none;" d="M158 76L159 77L158 76z"/>
<path style="fill:#dbb462; stroke:none;" d="M220 76L221 77L220 76z"/>
<path style="fill:#5faa93; stroke:none;" d="M231 76L232 77L231 76z"/>
<path style="fill:#dbb462; stroke:none;" d="M244 76L245 77L244 76M256 76L257 77L256 76M261 76L262 77L261 76z"/>
<path style="fill:#5faa93; stroke:none;" d="M272 76L273 77L272 76z"/>
<path style="fill:#dbb462; stroke:none;" d="M328 76L329 77L328 76M12 77L13 78L12 77z"/>
<path style="fill:#5faa93; stroke:none;" d="M18 77L19 78L18 77z"/>
<path style="fill:#dbb462; stroke:none;" d="M19 77L20 78L19 77M26 77L27 78L26 77z"/>
<path style="fill:#5faa93; stroke:none;" d="M43 77L44 78L43 77z"/>
<path style="fill:#dbb462; stroke:none;" d="M44 77L45 78L44 77M94 77L95 78L94 77M108 77L109 78L108 77M157 77L158 78L157 77z"/>
<path style="fill:#5faa93; stroke:none;" d="M162 77L163 78L162 77M215 77L216 78L215 77z"/>
<path style="fill:#dbb462; stroke:none;" d="M226 77L227 78L226 77M232 77L233 78L232 77M243 77L244 78L243 77M249 77L250 78L249 77M271 77L272 78L271 77M327 77L328 78L327 77M333 77L334 78L333 77M15.6667 78.3333L16.3333 78.6667L15.6667 78.3333M28 78L29 79L28 78z"/>
<path style="fill:#5faa93; stroke:none;" d="M29 78L29 79L41 79L29 78z"/>
<path style="fill:#dbb462; stroke:none;" d="M41 78L42 79L41 78M81 78L81 79L84 79L81 78M90 78L90 79L93 79L90 78z"/>
<path style="fill:#5faa93; stroke:none;" d="M143 78L144 79L143 78z"/>
<path style="fill:#dbb462; stroke:none;" d="M149 78L150 79L149 78M156 78L157 79L156 78M162 78L163 79L162 78M214 78L215 79L214 78z"/>
<path style="fill:#5faa93; stroke:none;" d="M227 78L228 79L227 78M233 78L234 79L233 78M242 78L243 79L242 78M248 78L249 79L248 78M257 78L258 79L257 78z"/>
<path style="fill:#dbb462; stroke:none;" d="M263 78L264 79L263 78M270 78L271 79L270 78z"/>
<path style="fill:#5faa93; stroke:none;" d="M276 78L277 79L276 78z"/>
<path style="fill:#dbb462; stroke:none;" d="M325 78L326 79L325 78z"/>
<path style="fill:#5faa93; stroke:none;" d="M326 78L327 79L326 78M332 78L333 79L332 78z"/>
<path style="fill:#dbb462; stroke:none;" d="M143 79L144 80L143 79z"/>
<path style="fill:#5faa93; stroke:none;" d="M150.667 79.3333L151.333 79.6667L150.667 79.3333z"/>
<path style="fill:#dbb462; stroke:none;" d="M152.667 79.3333L153.333 79.6667L152.667 79.3333z"/>
<path style="fill:#5faa93; stroke:none;" d="M154 79L155 80L154 79M161 79L162 80L161 79z"/>
<path style="fill:#dbb462; stroke:none;" d="M204 79L204 80L210 80L204 79z"/>
<path style="fill:#5faa93; stroke:none;" d="M210 79L210 80L213 80L210 79M219 79L220 80L219 79M235 79L236 80L235 79z"/>
<path style="fill:#dbb462; stroke:none;" d="M236 79L236 80L240 80L236 79z"/>
<path style="fill:#5faa93; stroke:none;" d="M240 79L241 80L240 79M264 79L265 80L264 79z"/>
<path style="fill:#dbb462; stroke:none;" d="M265 79L265 80L269 80L265 79z"/>
<path style="fill:#5faa93; stroke:none;" d="M269 79L270 80L269 79z"/>
<path style="fill:#dbb462; stroke:none;" d="M317 79L317 80L323 80L317 79z"/>
<path style="fill:#5faa93; stroke:none;" d="M323 79L324 80L323 79M331 79L332 80L331 79z"/>
<path style="fill:#dbb462; stroke:none;" d="M144 80L145 81L144 80z"/>
<path style="fill:#5faa93; stroke:none;" d="M229 80L230 81L229 80M246 80L247 81L246 80z"/>
<path style="fill:#dbb462; stroke:none;" d="M258 80L259 81L258 80M275 80L276 81L275 80z"/>
<path style="fill:#5faa93; stroke:none;" d="M330 80L331 81L330 80z"/>
<path style="fill:#dbb462; stroke:none;" d="M74 81L75 82L74 81z"/>
<path style="fill:#5faa93; stroke:none;" d="M75.6667 81.3333L76.3333 81.6667L75.6667 81.3333z"/>
<path style="fill:#dbb462; stroke:none;" d="M77 81L78 82L77 81M145 81L146 82L145 81M170 81L171 82L170 81z"/>
<path style="fill:#5faa93; stroke:none;" d="M217 81L218 82L217 81M230 81L231 82L230 81M245 81L246 82L245 81z"/>
<path style="fill:#dbb462; stroke:none;" d="M259 81L260 82L259 81M274 81L275 82L274 81M329 81L330 82L329 81M42 82.8627C34.5549 85.7488 31.6255 100.154 41.9853 97.0332C50.0718 94.5974 52.7665 78.689 42 82.8627z"/>
<path style="fill:#5faa93; stroke:none;" d="M73 82L74 83L73 82z"/>
<path style="fill:#2e2d36; stroke:none;" d="M74.3179 82.7577C67.5463 85.9284 76.675 98.9587 82.9414 96.6073C92.1546 93.1499 81.4021 79.4407 74.3179 82.7577z"/>
<path style="fill:#5faa93; stroke:none;" d="M79 82L80 83L79 82M147 82L148 83L147 82z"/>
<path style="fill:#dbb462; stroke:none;" d="M158 82L159 83L158 82M199 82L200 83L199 82z"/>
<path style="fill:#5faa93; stroke:none;" d="M215 82L216 83L215 82z"/>
<path style="fill:#dbb462; stroke:none;" d="M216 82L217 83L216 82z"/>
<path style="fill:#5faa93; stroke:none;" d="M232 82L233 83L232 82M243 82L244 83L243 82M261 82L262 83L261 82M272 82L273 83L272 82z"/>
<path style="fill:#dbb462; stroke:none;" d="M284 82L285 83L284 82M301 82L302 83L301 82z"/>
<path style="fill:#5faa93; stroke:none;" d="M305 82L306 83L305 82z"/>
<path style="fill:#dbb462; stroke:none;" d="M312 82L313 83L312 82M327 82L328 83L327 82M57 83L55 86L57 83z"/>
<path style="fill:#5faa93; stroke:none;" d="M58 83L59 84L58 83z"/>
<path style="fill:#2e2d36; stroke:none;" d="M59 83L59 84L62 84L59 83z"/>
<path style="fill:#dd6057; stroke:none;" d="M66 106C69.8524 98.5962 66.7171 92.426 66 85L65 84L63 83C55.9476 85.2124 48.3636 96.1089 54.9383 103.258C57.2623 105.785 62.8206 105.243 66 106z"/>
<path style="fill:#dbb462; stroke:none;" d="M63 83L64 84L63 83M81 83L82 84L81 83M149 83L150 84L149 83z"/>
<path style="fill:#5faa93; stroke:none;" d="M150 83L150 84L155 84L150 83z"/>
<path style="fill:#dbb462; stroke:none;" d="M155 83L156 84L155 83z"/>
<path style="fill:#5faa93; stroke:none;" d="M172.667 83.3333L173.333 83.6667L172.667 83.3333z"/>
<path style="fill:#dbb462; stroke:none;" d="M188 83L189 84L188 83M191 83L192 84L191 83M201 83L201 84L213 84L201 83M234 83L235 84L234 83z"/>
<path style="fill:#5faa93; stroke:none;" d="M235.667 83.3333L236.333 83.6667L235.667 83.3333M239.667 83.3333L240.333 83.6667L239.667 83.3333z"/>
<path style="fill:#dbb462; stroke:none;" d="M241 83L242 84L241 83M263 83L264 84L263 83z"/>
<path style="fill:#5faa93; stroke:none;" d="M264 83L264 84L270 84L264 83z"/>
<path style="fill:#dbb462; stroke:none;" d="M270 83L271 84L270 83M285 83L286 84L285 83z"/>
<path style="fill:#5faa93; stroke:none;" d="M286.667 83.3333L287.333 83.6667L286.667 83.3333z"/>
<path style="fill:#dbb462; stroke:none;" d="M302 83L303 84L302 83z"/>
<path style="fill:#5faa93; stroke:none;" d="M303.667 83.3333L304.333 83.6667L303.667 83.3333M314 83L314 84L323 84L314 83z"/>
<path style="fill:#dbb462; stroke:none;" d="M323.667 83.3333L324.333 83.6667L323.667 83.3333z"/>
<path style="fill:#2e2d36; stroke:none;" d="M57 84L58 85L57 84M63 84L64 85L63 84z"/>
<path style="fill:#dbb462; stroke:none;" d="M65 84L66 85L65 84z"/>
<path style="fill:#5faa93; stroke:none;" d="M71 84L71 89L72 89L71 84M82 84L83 85L82 84z"/>
<path style="fill:#2e2d36; stroke:none;" d="M56 85L57 86L56 85z"/>
<path style="fill:#5faa93; stroke:none;" d="M83 85L84 86L83 85z"/>
<path style="fill:#2e2d36; stroke:none;" d="M55 86L56 87L55 86M65 86L66 89L67 89L65 86z"/>
<path style="fill:#5faa93; stroke:none;" d="M66 86L67 87L66 86M84 86L85 87L84 86M54 87L55 88L54 87M85 87L86 88L85 87z"/>
<path style="fill:#dbb462; stroke:none;" d="M67 88L68 89L67 88z"/>
<path style="fill:#5faa93; stroke:none;" d="M86 88L87 89L86 88z"/>
<path style="fill:#dbb462; stroke:none;" d="M53.3333 89.6667L53.6667 90.3333L53.3333 89.6667M87 89L88 90L87 89z"/>
<path style="fill:#5faa93; stroke:none;" d="M72 90L73 91L72 90M87 90L87 93L88 93L87 90M53 91L53 94L54 94L53 91z"/>
<path style="fill:#dbb462; stroke:none;" d="M68 91L68 103L69 103L68 91z"/>
<path style="fill:#5faa93; stroke:none;" d="M73 91L74 92L73 91z"/>
<path style="fill:#dbb462; stroke:none;" d="M74 93L75 94L74 93M87 93L88 94L87 93M30.0401 94.9707C23.8344 96.3275 25.5943 105.628 31.8958 104.458C37.8303 103.355 35.9734 93.6735 30.0401 94.9707M75 94L76 95L75 94z"/>
<path style="fill:#5faa93; stroke:none;" d="M86 94L84 97L88 96L88 95L86 94M89 94L89 95L92 95L89 94z"/>
<path style="fill:#dbb462; stroke:none;" d="M92 94L93 95L92 94M52 95L52 98L53 98L52 95M76 95L77 96L76 95z"/>
<path style="fill:#fefefe; stroke:none;" d="M86 95L87 96L86 95z"/>
<path style="fill:#2e2d36; stroke:none;" d="M88.2315 96.0324C83.0321 99.1632 87.6963 106.481 92.8519 103.777C98.5358 100.796 93.6639 92.7613 88.2315 96.0324z"/>
<path style="fill:#dbb462; stroke:none;" d="M94 95L95 96L94 95z"/>
<path style="fill:#5faa93; stroke:none;" d="M78 96L79 97L78 96z"/>
<path style="fill:#fefefe; stroke:none;" d="M85 96L86 97L85 96z"/>
<path style="fill:#dbb462; stroke:none;" d="M95 96L96 97L95 96z"/>
<path style="fill:#5faa93; stroke:none;" d="M79.6667 97.3333L80.3333 97.6667L79.6667 97.3333M82 97L83 98L82 97z"/>
<path style="fill:#dbb462; stroke:none;" d="M83 97L84 98L83 97M85 97L86 98L85 97z"/>
<path style="fill:#5faa93; stroke:none;" d="M95 97L96 98L95 97M85 98L86 99L85 98M53 100L53 103L54 103L53 100M85 101L86 102L85 101z"/>
<path style="fill:#dbb462; stroke:none;" d="M95 102L96 103L95 102M53 103L54 104L53 103M86 103L87 104L86 103z"/>
<path style="fill:#5faa93; stroke:none;" d="M94 103L95 104L94 103M54 104L56 106L54 104z"/>
<path style="fill:#2e2d36; stroke:none;" d="M55 104L56 105L55 104M66 104L67 105L66 104z"/>
<path style="fill:#dbb462; stroke:none;" d="M67 104L68 105L67 104M87 104L88 105L87 104z"/>
<path style="fill:#5faa93; stroke:none;" d="M88 104L89 105L88 104M92 104L93 105L92 104z"/>
<path style="fill:#dbb462; stroke:none;" d="M93 104L94 105L93 104z"/>
<path style="fill:#2e2d36; stroke:none;" d="M56 105L56 106L65 106L56 105z"/>
<path style="fill:#dbb462; stroke:none;" d="M66 105L67 106L66 105M58 106L58 107L64 107L58 106M58 108L59 109L58 108z"/>
<path style="fill:#5faa93; stroke:none;" d="M59 108L59 109L62 109L59 108z"/>
<path style="fill:#dbb462; stroke:none;" d="M62.6667 108.333L63.3333 108.667L62.6667 108.333M56 109L57 110L56 109z"/>
<path style="fill:#dd6057; stroke:none;" d="M57 109L55 120L63 122L65 121L67 111L66 110L64 111L64 109L57 109z"/>
<path style="fill:#2e2d36; stroke:none;" d="M58 109L59 110L58 109M62 109L63 110L62 109z"/>
<path style="fill:#5faa93; stroke:none;" d="M64 109L65 110L64 109z"/>
<path style="fill:#dbb462; stroke:none;" d="M65 109L66 110L65 109z"/>
<path style="fill:#5faa93; stroke:none;" d="M55 110L56 111L55 110z"/>
<path style="fill:#2e2d36; stroke:none;" d="M64 110L65 111L64 110z"/>
<path style="fill:#dbb462; stroke:none;" d="M66 110L67 111L66 110M54 111L55 112L54 111z"/>
<path style="fill:#2e2d36; stroke:none;" d="M55 111L56 112L55 111M66 112L67 113L66 112z"/>
<path style="fill:#dbb462; stroke:none;" d="M67 112L68 113L67 112M53 113L53 117L54 117L53 113z"/>
<path style="fill:#5faa93; stroke:none;" d="M67 113L68 114L67 113z"/>
<path style="fill:#2e2d36; stroke:none;" d="M66.3333 117.667L66.6667 118.333L66.3333 117.667z"/>
<path style="fill:#dbb462; stroke:none;" d="M67 117L68 118L67 117z"/>
<path style="fill:#5faa93; stroke:none;" d="M54 118L55 119L54 118z"/>
<path style="fill:#2e2d36; stroke:none;" d="M55 118L56 119L55 118z"/>
<path style="fill:#dbb462; stroke:none;" d="M66 119L67 120L66 119M55 120L56 121L55 120z"/>
<path style="fill:#5faa93; stroke:none;" d="M56 120L57 121L56 120z"/>
<path style="fill:#2e2d36; stroke:none;" d="M63 120L64 121L63 120z"/>
<path style="fill:#dbb462; stroke:none;" d="M65 120L66 121L65 120M57 121L58 122L57 121z"/>
<path style="fill:#5faa93; stroke:none;" d="M58 121L59 122L58 121z"/>
<path style="fill:#2e2d36; stroke:none;" d="M60.6667 121.333L61.3333 121.667L60.6667 121.333z"/>
<path style="fill:#dbb462; stroke:none;" d="M63.6667 121.333L64.3333 121.667L63.6667 121.333z"/>
</svg>
